<?xml version="1.0" encoding="utf-8"?>
<!-- Svg Vector Icons : http://www.onlinewebfonts.com/icon -->
<!DOCTYPE svg PUBLIC "-//W3C//DTD SVG 1.1//EN" "http://www.w3.org/Graphics/SVG/1.1/DTD/svg11.dtd">
<svg version="1.1" xmlns="http://www.w3.org/2000/svg" xmlns:xlink="http://www.w3.org/1999/xlink" x="0px" y="0px" viewBox="0 0 256 256" enable-background="new 0 0 256 256" xml:space="preserve">
<metadata> Svg Vector Icons : http://www.onlinewebfonts.com/icon </metadata>
<g><g><path fill="#000000" d="M116.5,68.5v71.5c0,3.9,4.8,7,10.6,7c5.9,0,10.6-3.2,10.6-7V68.5c0-3.9-4.8-7-10.6-7C121.3,61.5,116.5,64.7,116.5,68.5z"/><path fill="#000000" d="M112.9,179.4c0,7.8,6.4,14.2,14.2,14.2c7.8,0,14.2-6.4,14.2-14.2c0-7.8-6.4-14.2-14.2-14.2C119.3,165.2,112.9,171.6,112.9,179.4L112.9,179.4z"/><path fill="#000000" d="M242.4,124.4c-2,0-3.6,1.6-3.6,3.6c0,61.1-49.7,110.8-110.8,110.8S17.2,189.1,17.2,128S66.9,17.2,128,17.2c2,0,3.6-1.6,3.6-3.6S130,10,128,10C62.9,10,10,62.9,10,128c0,65.1,52.9,118,118,118c65.1,0,118-52.9,118-118C246,126,244.4,124.4,242.4,124.4z"/><path fill="#000000" d="M127.1,157.8c-11.9,0-21.6,9.7-21.6,21.6c0,11.9,9.7,21.6,21.6,21.6c11.9,0,21.6-9.7,21.6-21.6S139,157.8,127.1,157.8z M127.1,193.6c-7.8,0-14.2-6.4-14.2-14.2c0-7.8,6.4-14.2,14.2-14.2c7.8,0,14.2,6.4,14.2,14.2C141.3,187.2,134.9,193.6,127.1,193.6z"/><path fill="#000000" d="M109.1,68.5v71.5c0,8.1,7.9,14.4,18,14.4c10.1,0,18-6.3,18-14.4V68.5c0-8.1-7.9-14.4-18-14.4C117,54.1,109.1,60.5,109.1,68.5z M137.7,68.5v71.5c0,3.9-4.8,7-10.6,7c-5.9,0-10.6-3.2-10.6-7V68.5c0-3.9,4.8-7,10.6-7C133,61.5,137.7,64.7,137.7,68.5z"/></g></g>
</svg>