<svg width="66" height="50" viewBox="0 0 66 50" fill="none" xmlns="http://www.w3.org/2000/svg">
<g id="circleElement">
<circle id="01" cx="63.7574" cy="2.18202" r="2.18202" transform="rotate(90 63.7574 2.18202)" fill="#9AB0FF"/>
<ellipse id="02" cx="63.7572" cy="17.5151" rx="2.06079" ry="2.18202" transform="rotate(90 63.7572 17.5151)" fill="#9AB0FF"/>
<ellipse id="03" cx="63.7572" cy="32.7273" rx="2.06079" ry="2.18202" transform="rotate(90 63.7572 32.7273)" fill="#9AB0FF"/>
<ellipse id="04" cx="63.7572" cy="47.9392" rx="2.06079" ry="2.18202" transform="rotate(90 63.7572 47.9392)" fill="#9AB0FF"/>
<circle id="05" cx="48.3031" cy="2.18202" r="2.18202" transform="rotate(90 48.3031 2.18202)" fill="#9AB0FF"/>
<ellipse id="06" cx="48.3028" cy="17.5151" rx="2.06079" ry="2.18202" transform="rotate(90 48.3028 17.5151)" fill="#9AB0FF"/>
<ellipse id="07" cx="48.3028" cy="32.7273" rx="2.06079" ry="2.18202" transform="rotate(90 48.3028 32.7273)" fill="#9AB0FF"/>
<ellipse id="08" cx="48.3028" cy="47.9392" rx="2.06079" ry="2.18202" transform="rotate(90 48.3028 47.9392)" fill="#9AB0FF"/>
<circle id="09" cx="32.8487" cy="2.18202" r="2.18202" transform="rotate(90 32.8487 2.18202)" fill="#9AB0FF"/>
<ellipse id="10" cx="32.8485" cy="17.5151" rx="2.06079" ry="2.18202" transform="rotate(90 32.8485 17.5151)" fill="#9AB0FF"/>
<ellipse id="11" cx="32.8485" cy="32.7273" rx="2.06079" ry="2.18202" transform="rotate(90 32.8485 32.7273)" fill="#9AB0FF"/>
<ellipse id="12" cx="32.8485" cy="47.9392" rx="2.06079" ry="2.18202" transform="rotate(90 32.8485 47.9392)" fill="#9AB0FF"/>
<circle id="13" cx="17.3944" cy="2.18202" r="2.18202" transform="rotate(90 17.3944 2.18202)" fill="#9AB0FF"/>
<ellipse id="14" cx="17.3942" cy="17.5151" rx="2.06079" ry="2.18202" transform="rotate(90 17.3942 17.5151)" fill="#9AB0FF"/>
<ellipse id="15" cx="17.3942" cy="32.7273" rx="2.06079" ry="2.18202" transform="rotate(90 17.3942 32.7273)" fill="#9AB0FF"/>
<ellipse id="16" cx="17.3942" cy="47.9392" rx="2.06079" ry="2.18202" transform="rotate(90 17.3942 47.9392)" fill="#9AB0FF"/>
<ellipse id="17" cx="2.06128" cy="2.18202" rx="2.18202" ry="2.06079" transform="rotate(90 2.06128 2.18202)" fill="#9AB0FF"/>
<circle id="18" cx="2.06103" cy="17.5151" r="2.06079" transform="rotate(90 2.06103 17.5151)" fill="#9AB0FF"/>
<circle id="19" cx="2.06103" cy="32.7273" r="2.06079" transform="rotate(90 2.06103 32.7273)" fill="#9AB0FF"/>
<circle id="20" cx="2.06103" cy="47.9392" r="2.06079" transform="rotate(90 2.06103 47.9392)" fill="#9AB0FF"/>
</g>
</svg>
