<svg width="154" height="119" viewBox="0 0 154 119" fill="none" xmlns="http://www.w3.org/2000/svg">
<g id="circleElement">
<circle id="01" cx="5.01886" cy="113.632" r="5.01886" transform="rotate(-90 5.01886 113.632)" fill="white"/>
<circle id="02" cx="5.01886" cy="77.6442" r="5.01886" transform="rotate(-90 5.01886 77.6442)" fill="white"/>
<circle id="03" cx="5.01886" cy="41.6567" r="5.01886" transform="rotate(-90 5.01886 41.6567)" fill="white"/>
<circle id="04" cx="5.01886" cy="5.66962" r="5.01886" transform="rotate(-90 5.01886 5.66962)" fill="white"/>
<circle id="05" cx="41.0064" cy="113.632" r="5.01886" transform="rotate(-90 41.0064 113.632)" fill="white"/>
<circle id="06" cx="41.0064" cy="77.6442" r="5.01886" transform="rotate(-90 41.0064 77.6442)" fill="white"/>
<circle id="07" cx="41.0064" cy="41.6567" r="5.01886" transform="rotate(-90 41.0064 41.6567)" fill="white"/>
<circle id="08" cx="41.0064" cy="5.66962" r="5.01886" transform="rotate(-90 41.0064 5.66962)" fill="white"/>
<circle id="09" cx="76.994" cy="113.632" r="5.01886" transform="rotate(-90 76.994 113.632)" fill="white"/>
<circle id="10" cx="76.994" cy="77.6442" r="5.01886" transform="rotate(-90 76.994 77.6442)" fill="white"/>
<circle id="11" cx="76.994" cy="41.6567" r="5.01886" transform="rotate(-90 76.994 41.6567)" fill="white"/>
<circle id="12" cx="76.994" cy="5.66962" r="5.01886" transform="rotate(-90 76.994 5.66962)" fill="white"/>
<circle id="13" cx="112.982" cy="113.632" r="5.01886" transform="rotate(-90 112.982 113.632)" fill="white"/>
<circle id="14" cx="112.982" cy="77.6442" r="5.01886" transform="rotate(-90 112.982 77.6442)" fill="white"/>
<circle id="15" cx="112.982" cy="41.6567" r="5.01886" transform="rotate(-90 112.982 41.6567)" fill="white"/>
<circle id="16" cx="112.982" cy="5.66962" r="5.01886" transform="rotate(-90 112.982 5.66962)" fill="white"/>
<circle id="17" cx="148.969" cy="113.632" r="5.01886" transform="rotate(-90 148.969 113.632)" fill="white"/>
<circle id="18" cx="148.969" cy="77.6442" r="5.01886" transform="rotate(-90 148.969 77.6442)" fill="white"/>
<circle id="19" cx="148.969" cy="41.6567" r="5.01886" transform="rotate(-90 148.969 41.6567)" fill="white"/>
<circle id="20" cx="148.969" cy="5.66962" r="5.01886" transform="rotate(-90 148.969 5.66962)" fill="white"/>
</g>
</svg>
