<svg xmlns="http://www.w3.org/2000/svg" xmlns:xlink="http://www.w3.org/1999/xlink" viewBox="0,0,256,256" width="100px" height="100px"><g fill="#ffffff" fill-rule="nonzero" stroke="none" stroke-width="1" stroke-linecap="butt" stroke-linejoin="miter" stroke-miterlimit="10" stroke-dasharray="" stroke-dashoffset="0" font-family="none" font-weight="none" font-size="none" text-anchor="none" style="mix-blend-mode: normal"><g transform="scale(2.56,2.56)"><path d="M50,14c-19.87041,0 -36,16.12959 -36,36c0,19.87041 16.12959,36 36,36c19.87041,0 36,-16.12959 36,-36c0,-19.87041 -16.12959,-36 -36,-36zM50,16c18.78953,0 34,15.21047 34,34c0,18.78953 -15.21047,34 -34,34c-18.78953,0 -34,-15.21047 -34,-34c0,-18.78953 15.21047,-34 34,-34zM50,19c-17.11521,0 -31,13.88479 -31,31c0,17.11521 13.88479,31 31,31c17.11521,0 31,-13.88479 31,-31c0,-9.09562 -3.92092,-17.28318 -10.16406,-22.95312c-0.13124,-0.12623 -0.32074,-0.17114 -0.49467,-0.11724c-0.17394,0.05391 -0.30482,0.19811 -0.34167,0.37644c-0.03685,0.17833 0.02615,0.3626 0.16447,0.48104c6.04286,5.48806 9.83594,13.40451 9.83594,22.21289c0,16.57479 -13.42521,30 -30,30c-16.57479,0 -30,-13.42521 -30,-30c0,-16.57479 13.42521,-30 30,-30c3.63074,0 7.10806,0.64594 10.32813,1.82617c0.16782,0.06143 0.35567,0.02865 0.49277,-0.08598c0.1371,-0.11463 0.20263,-0.29371 0.17189,-0.46976c-0.03074,-0.17605 -0.15307,-0.32232 -0.32091,-0.38371c-3.32794,-1.21977 -6.92262,-1.88672 -10.67187,-1.88672zM63.48047,22.14063c-0.23125,0.00568 -0.42843,0.16924 -0.47674,0.39547c-0.04831,0.22622 0.06485,0.45605 0.27361,0.55571c0.66975,0.33143 1.32715,0.68755 1.96875,1.06641c0.15409,0.09526 0.34764,0.09974 0.50597,0.0117c0.15832,-0.08804 0.25665,-0.25482 0.25704,-0.43597c0.00038,-0.18115 -0.09724,-0.34835 -0.25519,-0.43705c-0.6624,-0.39114 -1.339,-0.75899 -2.03125,-1.10156c-0.07485,-0.0383 -0.15814,-0.05711 -0.24219,-0.05469zM67.50781,24.51172c-0.01695,-0.00021 -0.0339,0.00044 -0.05078,0.00195c-0.21205,0.01579 -0.39093,0.16396 -0.44591,0.36937c-0.05498,0.20541 0.02596,0.42312 0.20177,0.54273c0.33269,0.23328 0.66032,0.47422 0.98242,0.7207c0.142,0.10887 0.33129,0.13371 0.49657,0.06516c0.16528,-0.06855 0.28143,-0.22007 0.3047,-0.39748c0.02327,-0.17741 -0.04988,-0.35376 -0.1919,-0.46261c-0.3339,-0.25551 -0.67427,-0.50342 -1.01758,-0.74414c-0.08135,-0.05928 -0.17869,-0.09264 -0.2793,-0.0957zM38,36c-0.51074,0 -1.02533,0.19721 -1.41406,0.58594c-0.77775,0.77642 -0.77775,2.0517 0,2.82812l10.58594,10.58594l-10.58594,10.58594c-0.7771,0.77577 -0.77771,2.04957 -0.00195,2.82617h0.00195v0.00195c0.38854,0.38875 0.90418,0.58594 1.41406,0.58594c0.51074,0 1.02533,-0.19721 1.41406,-0.58594l10.58594,-10.58594l10.58398,10.58398c0.38876,0.39009 0.90528,0.58789 1.41602,0.58789c0.51074,0 1.02533,-0.19721 1.41406,-0.58594c0.77775,-0.77642 0.77775,-2.05171 0,-2.82812l-10.58594,-10.58594l10.58594,-10.58594c0.77729,-0.77596 0.77637,-2.04962 0,-2.82617c-0.38813,-0.39078 -0.90333,-0.58789 -1.41406,-0.58789c-0.51074,0 -1.02533,0.19721 -1.41406,0.58594l-10.58594,10.58594l-10.58594,-10.58594c-0.38873,-0.38873 -0.90333,-0.58594 -1.41406,-0.58594zM38,37c0.25726,0 0.50976,0.0957 0.70703,0.29297l11.29297,11.29297l11.29297,-11.29297c0.19727,-0.19727 0.44977,-0.29297 0.70703,-0.29297c0.25726,0 0.5092,0.09575 0.70508,0.29297h0.00195c0.39425,0.39358 0.39425,1.02048 0,1.41406l-11.29297,11.29297l0.35352,0.35352l10.93945,10.93945c0.39425,0.39358 0.39425,1.02048 0,1.41406c-0.19727,0.19727 -0.44977,0.29297 -0.70703,0.29297c-0.25726,0 -0.5098,-0.09506 -0.70703,-0.29297l-11.29297,-11.29297l-11.29297,11.29297c-0.19727,0.19727 -0.44977,0.29297 -0.70703,0.29297c-0.25726,0 -0.5098,-0.09506 -0.70703,-0.29297c-0.39425,-0.39358 -0.39425,-1.02048 0,-1.41406l11.29297,-11.29297l-11.29297,-11.29297c-0.39425,-0.39358 -0.39425,-1.02048 0,-1.41406c0.19727,-0.19727 0.44977,-0.29297 0.70703,-0.29297z"></path></g></g></svg>